<?xml version="1.0" encoding="utf-8"?>
<!-- Generator: Adobe Illustrator 28.2.0, SVG Export Plug-In . SVG Version: 6.00 Build 0)  -->
<svg version="1.1" id="Layer_1" xmlns="http://www.w3.org/2000/svg" xmlns:xlink="http://www.w3.org/1999/xlink" x="0px" y="0px"
	 viewBox="0 0 188.96 306.69" style="enable-background:new 0 0 188.96 306.69;" xml:space="preserve">
<style type="text/css">
	.st0{fill:#FFFFFF;}
</style>
<g>
	<g>
		<g>
			<path class="st0" d="M59.38,178.78v-63.08H44.4v-8.21h14.99V82.34h9.12v25.15h17.07v8.21H68.51v63.08H59.38z"/>
		</g>
	</g>
	<g>
		<g>
			<path class="st0" d="M139.2,156.4h-0.26c-5.08,9.38-16.03,14.73-27.5,14.73c-20.33,0-37.27-16.16-37.27-37.01
				s16.81-37.79,37.27-37.79c11.47,0,21.63,5.34,27.5,14.59h0.26V98.15h9.12v63.73c0,25.8-18.77,35.58-34.8,35.58
				c-17.59,0-31.67-9.65-36.49-26.19h9.64c4.69,11.6,14.34,17.98,26.72,17.98c16.16,0,25.8-10.95,25.8-26.07V156.4z M139.72,133.85
				c0-15.51-12.25-29.32-28.41-29.32c-15.38,0-28.02,13.42-28.02,29.32c0,15.51,12.25,29.06,28.15,29.06
				C127.47,162.92,139.72,149.23,139.72,133.85z"/>
		</g>
	</g>
	<g>
		<g>
			<path class="st0" d="M77.1,242.54v-12.51h-0.26c-5.86,8.86-16.16,14.2-27.76,14.2c-21.37,0-38.31-16.16-38.31-37.53
				c0-21.37,17.46-37.27,38.31-37.27c11.86,0,22.02,5.34,27.76,14.34h0.26v-12.51h9.12v71.29H77.1z M77.62,206.96
				c0-15.9-12.51-29.32-28.67-29.32c-16.42,0-29.06,12.51-29.06,29.45c0,16.42,12.38,28.93,29.19,28.93
				C64.98,236.03,77.62,222.99,77.62,206.96z"/>
		</g>
	</g>
	<path class="st0" d="M99.07,277.37c-18.45,0-39.16-2.22-52.8-18.65l4.43-3.68c12.12,14.6,31.25,16.57,48.36,16.57
		c36.4,0,62.82-23.83,62.82-56.67V91c0-32.83-26.42-56.67-62.82-56.67S36.24,58.16,36.24,91v69.55h-5.76V91
		c0-36.17,28.84-62.43,68.58-62.43S167.65,54.82,167.65,91v123.95C167.65,251.12,138.81,277.37,99.07,277.37z"/>
</g>
</svg>
